<svg fill="none" height="87" viewBox="0 0 77 87" width="77" xmlns="http://www.w3.org/2000/svg"><path d="m67.245 16.7524c-.0604-.4393-.4442-.683-.7628-.7096-.3162-.0265-6.5096-.1207-6.5096-.1207s-5.1798-5.0301-5.6915-5.5418c-.5117-.51166-1.5109-.3572-1.8996-.2413-.0048.0024-.9727.3017-2.6019.8061-.2727-.8834-.6734-1.96952-1.2454-3.0605-1.8441-3.51914-4.545-5.38008-7.8083-5.38491-.0048 0-.0072 0-.0121 0-.2268 0-.4513.02172-.6782.04103-.0965-.11585-.1931-.2293-.2945-.34032-1.4216-1.520619-3.2439-2.2616163-5.4283-2.19644712-4.2143.12068412-8.4117 3.16432712-11.8149 8.57095712-2.3944 3.80399-4.2167 8.58299-4.7333 12.28319-4.8394 1.4989-8.22335 2.5464-8.29817 2.5706-2.44264.7675-2.51988.8423-2.83848 3.145-.23654 1.7402-6.62795 51.1626-6.62795 51.1626l53.5618 9.2637 23.2148-5.7711s-9.4713-64.0372-9.5316-64.4765zm-20.147-4.977c-1.2334.3814-2.6357.8159-4.1563 1.2865-.0314-2.1337-.2848-5.10248-1.2793-7.66821 3.1981.60583 4.7719 4.22393 5.4356 6.38171zm-6.9586 2.1555c-2.8071.8689-5.8701 1.8174-8.9427 2.7684.8641-3.3091 2.503-6.6038 4.516-8.76401.7483-.80376 1.7958-1.69923 3.0364-2.21093 1.1658 2.43298 1.4193 5.87734 1.3903 8.20654zm-5.7421-11.12226c.9896-.02172 1.8223.19551 2.5343.66376-1.1392.59135-2.2399 1.44097-3.2729 2.54884-2.6768 2.87227-4.7284 7.33036-5.5466 11.63146-2.5513.7893-5.047 1.5641-7.3448 2.2737 1.4506-6.7703 7.1251-16.92949 13.63-17.11776z" fill="#95bf47"/><path d="m66.4846 16.0453c-.3162-.0266-6.5097-.1207-6.5097-.1207s-5.1797-5.0301-5.6914-5.5418c-.1907-.1907-.449-.2896-.7193-.3307l.0024 76.9455 23.2123-5.7686s-9.4712-64.0348-9.5316-64.4741c-.0603-.4393-.4465-.6831-.7627-.7096z" fill="#5e8e3e"/><path d="m40.6968 27.9809-2.696 10.0867s-3.0075-1.3686-6.5725-1.1441c-5.228.3307-5.2835 3.6278-5.2304 4.4557.2848 4.5111 12.1529 5.4959 12.819 16.063.5238 8.3126-4.4098 13.9993-11.518 14.4482-8.5324.5383-13.2294-4.4943-13.2294-4.4943l1.8079-7.6899s4.7284 3.5674 8.513 3.3284c2.4716-.1569 3.355-2.1674 3.2657-3.5891-.3717-5.8845-10.0361-5.537-10.6467-15.2061-.5141-8.1365 4.8297-16.3816 16.6205-17.1251 4.5426-.292 6.8669.8666 6.8669.8666z" fill="#fff"/></svg>